<mxfile host="app.diagrams.net" modified="2022-09-28T17:25:23.186Z" agent="5.0 (Windows NT 6.1; Win64; x64) AppleWebKit/537.36 (KHTML, like Gecko) Chrome/105.0.0.0 Safari/537.36" etag="mDVyT3M82_vkQLcOCxr4" version="20.3.6" type="github">
  <diagram id="Zo5d03TKhxQbhcVk_ASe" name="Page-1">
    <mxGraphModel dx="760" dy="362" grid="1" gridSize="10" guides="1" tooltips="1" connect="1" arrows="1" fold="1" page="1" pageScale="1" pageWidth="827" pageHeight="1169" math="0" shadow="0">
      <root>
        <mxCell id="0" />
        <mxCell id="1" parent="0" />
        <mxCell id="2VkFlX18YUFkIJ6Ggd0B-1" value="Vasyl: User" style="shape=umlLifeline;participant=umlActor;perimeter=lifelinePerimeter;whiteSpace=wrap;html=1;container=1;collapsible=0;recursiveResize=0;verticalAlign=top;spacingTop=36;outlineConnect=0;" parent="1" vertex="1">
          <mxGeometry x="84" y="70" width="20" height="410" as="geometry" />
        </mxCell>
        <mxCell id="2VkFlX18YUFkIJ6Ggd0B-9" value="" style="html=1;points=[];perimeter=orthogonalPerimeter;" parent="2VkFlX18YUFkIJ6Ggd0B-1" vertex="1">
          <mxGeometry x="5" y="80" width="10" height="310" as="geometry" />
        </mxCell>
        <mxCell id="2VkFlX18YUFkIJ6Ggd0B-3" value="view: MainView" style="shape=umlLifeline;participant=umlBoundary;perimeter=lifelinePerimeter;whiteSpace=wrap;html=1;container=1;collapsible=0;recursiveResize=0;verticalAlign=top;spacingTop=36;outlineConnect=0;" parent="1" vertex="1">
          <mxGeometry x="224" y="70" width="50" height="400" as="geometry" />
        </mxCell>
        <mxCell id="2VkFlX18YUFkIJ6Ggd0B-10" value="" style="html=1;points=[];perimeter=orthogonalPerimeter;" parent="2VkFlX18YUFkIJ6Ggd0B-3" vertex="1">
          <mxGeometry x="20" y="80" width="10" height="310" as="geometry" />
        </mxCell>
        <mxCell id="2VkFlX18YUFkIJ6Ggd0B-21" value="setCellText(&quot;A3&quot;, &quot;255&quot;)" style="html=1;verticalAlign=bottom;endArrow=block;rounded=0;" parent="2VkFlX18YUFkIJ6Ggd0B-3" source="2VkFlX18YUFkIJ6Ggd0B-10" target="2VkFlX18YUFkIJ6Ggd0B-10" edge="1">
          <mxGeometry x="0.1667" y="70" width="80" relative="1" as="geometry">
            <mxPoint x="50" y="220" as="sourcePoint" />
            <mxPoint x="160" y="240" as="targetPoint" />
            <Array as="points">
              <mxPoint x="60" y="170" />
              <mxPoint x="60" y="200" />
            </Array>
            <mxPoint as="offset" />
          </mxGeometry>
        </mxCell>
        <mxCell id="2VkFlX18YUFkIJ6Ggd0B-25" value="setCellText(&quot;B1&quot;, &quot;100&quot;)" style="html=1;verticalAlign=bottom;endArrow=block;rounded=0;" parent="2VkFlX18YUFkIJ6Ggd0B-3" source="2VkFlX18YUFkIJ6Ggd0B-10" target="2VkFlX18YUFkIJ6Ggd0B-10" edge="1">
          <mxGeometry x="0.1667" y="70" width="80" relative="1" as="geometry">
            <mxPoint x="30" y="470" as="sourcePoint" />
            <mxPoint x="30" y="509.9999999999999" as="targetPoint" />
            <Array as="points">
              <mxPoint x="60" y="350" />
              <mxPoint x="60" y="380" />
            </Array>
            <mxPoint as="offset" />
          </mxGeometry>
        </mxCell>
        <mxCell id="2VkFlX18YUFkIJ6Ggd0B-6" value="table: Table" style="shape=umlLifeline;participant=umlControl;perimeter=lifelinePerimeter;whiteSpace=wrap;html=1;container=1;collapsible=0;recursiveResize=0;verticalAlign=top;spacingTop=36;outlineConnect=0;" parent="1" vertex="1">
          <mxGeometry x="444" y="70" width="40" height="400" as="geometry" />
        </mxCell>
        <mxCell id="2VkFlX18YUFkIJ6Ggd0B-13" value="" style="html=1;points=[];perimeter=orthogonalPerimeter;" parent="2VkFlX18YUFkIJ6Ggd0B-6" vertex="1">
          <mxGeometry x="15" y="110" width="10" height="40" as="geometry" />
        </mxCell>
        <mxCell id="2VkFlX18YUFkIJ6Ggd0B-18" value="" style="html=1;points=[];perimeter=orthogonalPerimeter;" parent="2VkFlX18YUFkIJ6Ggd0B-6" vertex="1">
          <mxGeometry x="15" y="220" width="10" height="50" as="geometry" />
        </mxCell>
        <mxCell id="2VkFlX18YUFkIJ6Ggd0B-26" value="" style="html=1;points=[];perimeter=orthogonalPerimeter;" parent="2VkFlX18YUFkIJ6Ggd0B-6" vertex="1">
          <mxGeometry x="15" y="300" width="10" height="30" as="geometry" />
        </mxCell>
        <mxCell id="2VkFlX18YUFkIJ6Ggd0B-8" value="cellA3: Cell" style="shape=umlLifeline;participant=umlEntity;perimeter=lifelinePerimeter;whiteSpace=wrap;html=1;container=1;collapsible=0;recursiveResize=0;verticalAlign=top;spacingTop=36;outlineConnect=0;" parent="1" vertex="1">
          <mxGeometry x="634" y="70" width="40" height="400" as="geometry" />
        </mxCell>
        <mxCell id="2VkFlX18YUFkIJ6Ggd0B-40" value="" style="html=1;points=[];perimeter=orthogonalPerimeter;" parent="2VkFlX18YUFkIJ6Ggd0B-8" vertex="1">
          <mxGeometry x="15" y="120" width="10" height="25" as="geometry" />
        </mxCell>
        <mxCell id="2VkFlX18YUFkIJ6Ggd0B-50" value="" style="html=1;points=[];perimeter=orthogonalPerimeter;" parent="2VkFlX18YUFkIJ6Ggd0B-8" vertex="1">
          <mxGeometry x="15" y="230" width="10" height="30" as="geometry" />
        </mxCell>
        <mxCell id="2VkFlX18YUFkIJ6Ggd0B-11" value="Set the text of the cell" style="html=1;verticalAlign=bottom;endArrow=block;rounded=0;entryX=0.032;entryY=0.027;entryDx=0;entryDy=0;entryPerimeter=0;" parent="1" source="2VkFlX18YUFkIJ6Ggd0B-9" target="2VkFlX18YUFkIJ6Ggd0B-10" edge="1">
          <mxGeometry width="80" relative="1" as="geometry">
            <mxPoint x="124" y="160" as="sourcePoint" />
            <mxPoint x="204" y="160" as="targetPoint" />
          </mxGeometry>
        </mxCell>
        <mxCell id="2VkFlX18YUFkIJ6Ggd0B-12" value="setCellExpression(&quot;A3&quot;, &quot;A1 + A2 * 3&quot;)" style="html=1;verticalAlign=bottom;endArrow=block;rounded=0;entryX=-0.004;entryY=0.003;entryDx=0;entryDy=0;entryPerimeter=0;" parent="1" source="2VkFlX18YUFkIJ6Ggd0B-10" target="2VkFlX18YUFkIJ6Ggd0B-13" edge="1">
          <mxGeometry width="80" relative="1" as="geometry">
            <mxPoint x="314" y="170" as="sourcePoint" />
            <mxPoint x="394" y="170" as="targetPoint" />
          </mxGeometry>
        </mxCell>
        <mxCell id="2VkFlX18YUFkIJ6Ggd0B-15" value="getDependentCells(&quot;A3&quot;)" style="html=1;verticalAlign=bottom;endArrow=block;rounded=0;entryX=0;entryY=0.003;entryDx=0;entryDy=0;entryPerimeter=0;" parent="1" source="2VkFlX18YUFkIJ6Ggd0B-10" target="2VkFlX18YUFkIJ6Ggd0B-18" edge="1">
          <mxGeometry width="80" relative="1" as="geometry">
            <mxPoint x="264" y="300" as="sourcePoint" />
            <mxPoint x="444" y="290" as="targetPoint" />
          </mxGeometry>
        </mxCell>
        <mxCell id="2VkFlX18YUFkIJ6Ggd0B-16" value="CellNumberValue(255)" style="html=1;verticalAlign=bottom;endArrow=open;dashed=1;endSize=8;rounded=0;exitX=0.002;exitY=1.006;exitDx=0;exitDy=0;exitPerimeter=0;" parent="1" source="2VkFlX18YUFkIJ6Ggd0B-13" target="2VkFlX18YUFkIJ6Ggd0B-10" edge="1">
          <mxGeometry relative="1" as="geometry">
            <mxPoint x="414" y="219.81" as="sourcePoint" />
            <mxPoint x="334" y="219.81" as="targetPoint" />
          </mxGeometry>
        </mxCell>
        <mxCell id="2VkFlX18YUFkIJ6Ggd0B-17" value="[&quot;B1&quot;]" style="html=1;verticalAlign=bottom;endArrow=open;dashed=1;endSize=8;rounded=0;exitX=-0.003;exitY=1.004;exitDx=0;exitDy=0;exitPerimeter=0;" parent="1" source="2VkFlX18YUFkIJ6Ggd0B-18" target="2VkFlX18YUFkIJ6Ggd0B-10" edge="1">
          <mxGeometry relative="1" as="geometry">
            <mxPoint x="434" y="330" as="sourcePoint" />
            <mxPoint x="250" y="399.99999999999994" as="targetPoint" />
          </mxGeometry>
        </mxCell>
        <mxCell id="2VkFlX18YUFkIJ6Ggd0B-38" value="cellB1: Cell" style="shape=umlLifeline;participant=umlEntity;perimeter=lifelinePerimeter;whiteSpace=wrap;html=1;container=1;collapsible=0;recursiveResize=0;verticalAlign=top;spacingTop=36;outlineConnect=0;" parent="1" vertex="1">
          <mxGeometry x="704" y="70" width="40" height="400" as="geometry" />
        </mxCell>
        <mxCell id="2VkFlX18YUFkIJ6Ggd0B-42" value="" style="html=1;points=[];perimeter=orthogonalPerimeter;" parent="2VkFlX18YUFkIJ6Ggd0B-38" vertex="1">
          <mxGeometry x="15" y="310" width="10" height="10" as="geometry" />
        </mxCell>
        <mxCell id="2VkFlX18YUFkIJ6Ggd0B-39" value="setExpression(&quot;A1 + A2 * 3&quot;)" style="html=1;verticalAlign=bottom;endArrow=block;rounded=0;entryX=0.003;entryY=-0.005;entryDx=0;entryDy=0;entryPerimeter=0;" parent="1" source="2VkFlX18YUFkIJ6Ggd0B-13" target="2VkFlX18YUFkIJ6Ggd0B-40" edge="1">
          <mxGeometry width="80" relative="1" as="geometry">
            <mxPoint x="784" y="189.99999999999994" as="sourcePoint" />
            <mxPoint x="1019.03" y="189.99999999999994" as="targetPoint" />
          </mxGeometry>
        </mxCell>
        <mxCell id="2VkFlX18YUFkIJ6Ggd0B-41" value="setValue(CellNumberValue(255))" style="html=1;verticalAlign=bottom;endArrow=block;rounded=0;entryX=-0.047;entryY=1.003;entryDx=0;entryDy=0;entryPerimeter=0;" parent="1" source="2VkFlX18YUFkIJ6Ggd0B-13" target="2VkFlX18YUFkIJ6Ggd0B-40" edge="1">
          <mxGeometry width="80" relative="1" as="geometry">
            <mxPoint x="509" y="204.29999999999995" as="sourcePoint" />
            <mxPoint x="614" y="220" as="targetPoint" />
          </mxGeometry>
        </mxCell>
        <mxCell id="2VkFlX18YUFkIJ6Ggd0B-44" value="setValue(CellNumberValue(255)" style="html=1;verticalAlign=bottom;endArrow=block;rounded=0;entryX=-0.003;entryY=-0.003;entryDx=0;entryDy=0;entryPerimeter=0;" parent="1" source="2VkFlX18YUFkIJ6Ggd0B-26" target="2VkFlX18YUFkIJ6Ggd0B-42" edge="1">
          <mxGeometry width="80" relative="1" as="geometry">
            <mxPoint x="614" y="419" as="sourcePoint" />
            <mxPoint x="794" y="419" as="targetPoint" />
          </mxGeometry>
        </mxCell>
        <mxCell id="2VkFlX18YUFkIJ6Ggd0B-51" value="getDependentCellsIds()" style="html=1;verticalAlign=bottom;endArrow=block;rounded=0;entryX=-0.002;entryY=-0.002;entryDx=0;entryDy=0;entryPerimeter=0;" parent="1" source="2VkFlX18YUFkIJ6Ggd0B-18" target="2VkFlX18YUFkIJ6Ggd0B-50" edge="1">
          <mxGeometry width="80" relative="1" as="geometry">
            <mxPoint x="444" y="279.71000000000004" as="sourcePoint" />
            <mxPoint x="584" y="259.53" as="targetPoint" />
          </mxGeometry>
        </mxCell>
        <mxCell id="2VkFlX18YUFkIJ6Ggd0B-52" value="[Cell(&quot;B1&quot;)]" style="html=1;verticalAlign=bottom;endArrow=open;dashed=1;endSize=8;rounded=0;exitX=0.002;exitY=1.006;exitDx=0;exitDy=0;exitPerimeter=0;" parent="1" source="2VkFlX18YUFkIJ6Ggd0B-50" target="2VkFlX18YUFkIJ6Ggd0B-18" edge="1">
          <mxGeometry relative="1" as="geometry">
            <mxPoint x="604" y="309.34000000000003" as="sourcePoint" />
            <mxPoint x="444" y="339.89" as="targetPoint" />
          </mxGeometry>
        </mxCell>
        <mxCell id="2VkFlX18YUFkIJ6Ggd0B-28" value="CellNumberValue(100)" style="html=1;verticalAlign=bottom;endArrow=open;dashed=1;endSize=8;rounded=0;exitX=0;exitY=1.003;exitDx=0;exitDy=0;exitPerimeter=0;" parent="1" source="2VkFlX18YUFkIJ6Ggd0B-26" target="2VkFlX18YUFkIJ6Ggd0B-10" edge="1">
          <mxGeometry relative="1" as="geometry">
            <mxPoint x="434" y="430" as="sourcePoint" />
            <mxPoint x="254" y="515.73" as="targetPoint" />
          </mxGeometry>
        </mxCell>
        <mxCell id="2VkFlX18YUFkIJ6Ggd0B-27" value="getCellValue(cellId: &quot;B1&quot;, refresh: true)" style="html=1;verticalAlign=bottom;endArrow=block;rounded=0;entryX=-0.001;entryY=-0.004;entryDx=0;entryDy=0;entryPerimeter=0;" parent="1" source="2VkFlX18YUFkIJ6Ggd0B-10" target="2VkFlX18YUFkIJ6Ggd0B-26" edge="1">
          <mxGeometry width="80" relative="1" as="geometry">
            <mxPoint x="254" y="455.2499999999999" as="sourcePoint" />
            <mxPoint x="484" y="370" as="targetPoint" />
          </mxGeometry>
        </mxCell>
      </root>
    </mxGraphModel>
  </diagram>
</mxfile>
